<?xml version="1.0" encoding="utf-8"?>
<!-- Generator: Adobe Illustrator 16.0.3, SVG Export Plug-In . SVG Version: 6.00 Build 0)  -->
<!DOCTYPE svg PUBLIC "-//W3C//DTD SVG 1.1//EN" "http://www.w3.org/Graphics/SVG/1.1/DTD/svg11.dtd">
<svg version="1.1" id="Capa_1" xmlns="http://www.w3.org/2000/svg" xmlns:xlink="http://www.w3.org/1999/xlink" x="0px" y="0px"
	 width="35px" height="35px" viewBox="0 2.455 35 35" enable-background="new 0 2.455 35 35" xml:space="preserve">
<g>
	<path fill="#8B8992" d="M20.891,36.886h-7.016v-5.898h7.016V36.886z M16.214,35.513h2.339v-2.468h-2.339V35.513L16.214,35.513z"/>
	<polygon fill="#57555C" points="17.5,33.045 18.553,33.045 18.553,35.513 17.5,35.513 17.5,36.886 20.891,36.886 20.891,30.987 
		17.5,30.987 	"/>
	<path fill="#9BC9FF" d="M34.999,28.243H0v-16.46h34.999V28.243z"/>
	<rect x="17.499" y="11.783" fill="#009AE5" width="17.5" height="16.46"/>
	<rect x="11.536" y="35.513" fill="#005ECE" width="11.692" height="2.059"/>
	<path fill="#B87FD9" d="M16.214,28.243H9.199V14.184h7.015V28.243z"/>
	<path fill="#8034AD" d="M16.214,28.243h-3.508V14.184h3.508V28.243z"/>
	<path fill="#8B8992" d="M20.126,11.439H5.208L2.175,2.455h4.462c1.594,0,3.447,0.502,4.9,1.406V2.455H23.16L20.126,11.439z"/>
	<polygon fill="#57555C" points="23.159,2.455 12.667,2.455 12.667,11.439 20.126,11.439 	"/>
	<path fill="#E3CEF0" d="M16.915,16.241H8.497c-1.935,0-3.509-1.386-3.509-3.086V9.382h15.435v3.772
		C20.423,14.855,18.85,16.241,16.915,16.241z"/>
	<path fill="#D5B4E8" d="M12.706,9.382v6.859h4.209c1.935,0,3.508-1.386,3.508-3.086V9.382H12.706z"/>
	<path fill="#E0E0E2" d="M30.884,10.572c-0.711,0-1.413-0.165-2.047-0.486c-0.95-0.482-1.63-1.262-1.913-2.195
		s-0.139-1.906,0.41-2.742s1.436-1.435,2.494-1.684l3.967-0.936l1.063,3.491c0.285,0.932,0.14,1.906-0.409,2.742
		c-0.55,0.836-1.435,1.434-2.494,1.684C31.602,10.53,31.241,10.572,30.884,10.572z"/>
	<path fill="#ACABB1" d="M34.859,6.021l-1.063-3.49l0,0l-4.958,7.555l0,0c0.633,0.322,1.336,0.486,2.047,0.486
		c0.357,0,0.717-0.042,1.07-0.125c1.061-0.25,1.945-0.848,2.494-1.684C34.996,7.928,35.143,6.954,34.859,6.021z"/>
	<path fill="#FFE477" d="M19.443,30.577l-6.076-3.086l9.744-14.85l6.074,3.087L19.443,30.577z"/>
	<polygon fill="#FFA733" points="26.152,14.19 29.188,15.733 19.443,30.581 16.406,29.038 	"/>
	<path fill="#FF9A00" d="M28.917,17.966l-7.876-4l6.787-6.768l4.357,2.213L28.917,17.966z"/>
	<polygon fill="#E67500" points="32.186,9.412 30.007,8.305 24.979,15.966 28.917,17.966 	"/>
	<path fill="#005ECE" d="M34.999,33.045H0v-6.858h34.999V33.045z"/>
	<g>
		<rect x="17.499" y="26.187" fill="#003F8A" width="17.5" height="6.858"/>
		<rect x="17.383" y="35.513" fill="#003F8A" width="5.846" height="2.059"/>
	</g>
</g>
</svg>
