<?xml version="1.0" encoding="utf-8"?>
<!-- Generator: Adobe Illustrator 16.0.3, SVG Export Plug-In . SVG Version: 6.00 Build 0)  -->
<!DOCTYPE svg PUBLIC "-//W3C//DTD SVG 1.1//EN" "http://www.w3.org/Graphics/SVG/1.1/DTD/svg11.dtd">
<svg version="1.1" id="Capa_1" xmlns="http://www.w3.org/2000/svg" xmlns:xlink="http://www.w3.org/1999/xlink" x="0px" y="0px"
	 width="35px" height="35px" viewBox="238.5 238.5 35 35" enable-background="new 238.5 238.5 35 35" xml:space="preserve">
<g>
	<g>
		<path fill="#3F4A4A" d="M252.514,266.5c-0.075,0.257-1.297,4.41-1.373,4.667l2.43,0.699l2.429-0.699l0.803-2.333L256,266.5
			l-1.743-0.91L252.514,266.5z"/>
		<path fill="#2D2D2D" d="M259.487,266.5l-1.743-0.91L256,266.5v4.667l2.43,0.699l2.429-0.699
			C260.783,270.91,259.562,266.757,259.487,266.5z"/>
		<path fill="#BEEBFA" d="M238.5,238.5v13.518l13.314,0.537l4.186-6.37l0.803-3.795L256,238.5
			C255.506,238.5,238.994,238.5,238.5,238.5L238.5,238.5z"/>
		<path fill="#7ED8F6" d="M265.265,238.5c-1.118,0-8.14,0-9.265,0v7.684l9.265,8.167l0.687-5.351L265.265,238.5z"/>
		<path fill="#55696E" d="M248.794,271.167v2.333H256l0.707-1.167L256,271.167C254.607,271.167,250.531,271.167,248.794,271.167
			L248.794,271.167z"/>
		<path fill="#3F4A4A" d="M263.206,273.5c0-0.816,0-1.517,0-2.333c-0.769,0-6.458,0-7.206,0v2.333H263.206z"/>
		<path fill="#00CC76" d="M251.883,250.851l1.784,3.258l2.333,1.408l0.707-4.549L256,246.184
			C255.499,246.752,252.384,250.283,251.883,250.851L251.883,250.851z"/>
		<path fill="#009986" d="M265.265,259.5l1.029-2.334l-1.029-2.815c-2.217-2.512-6.945-7.871-8.235-9.333
			c-0.356,0.405-0.672,0.762-1.029,1.167v9.333l3.514,3.983l2.663,1.167L265.265,259.5z"/>
		<path fill="#A5E887" d="M245.706,243.851c-0.487,0.552-6.719,7.614-7.206,8.167v7.482l8.235,1.167L256,259.5l0.528-1.866
			L256,255.517C253.509,252.687,248.012,246.464,245.706,243.851L245.706,243.851z"/>
		<path fill="#00CC76" d="M256,255.517v3.983l2.059,1.167l1.455-1.167C258.56,258.419,256.556,256.148,256,255.517L256,255.517z"/>
		<path fill="#FFD321" d="M265.265,249l4.118,0.723L273.5,249c0-1.431,0-4.418,0-5.25l-4.117-0.793l-4.118,0.793V249z"/>
		<path fill="#4895FF" d="M265.265,259.5l4.118,1.167l4.117-1.167c0-1.431,0-4.418,0-5.25l-4.117-0.56l-4.118,0.56V259.5z"/>
		<path fill="#FF415B" d="M265.265,243.75h8.235c0-1.431,0-4.417,0-5.25c-0.995,0-7.233,0-8.235,0V243.75z"/>
		<path fill="#FF415B" d="M265.265,254.25h8.235c0-1.431,0-4.418,0-5.25c-0.995,0-7.233,0-8.235,0V254.25z"/>
		<path fill="#55696E" d="M238.5,259.5v7H256l1.063-3.5L256,259.5C255.506,259.5,238.994,259.5,238.5,259.5z"/>
		<path fill="#3F4A4A" d="M273.5,266.5c0-0.848,0-6.144,0-7c-0.494,0-17.006,0-17.5,0v7H273.5z"/>
	</g>
	<path fill="#FFEF4A" d="M250.833,243.144h2.106v2.388h-2.106V243.144z"/>
</g>
</svg>
