<?xml version="1.0" encoding="utf-8"?>
<!-- Generator: Adobe Illustrator 16.0.3, SVG Export Plug-In . SVG Version: 6.00 Build 0)  -->
<!DOCTYPE svg PUBLIC "-//W3C//DTD SVG 1.1//EN" "http://www.w3.org/Graphics/SVG/1.1/DTD/svg11.dtd">
<svg version="1.1" id="Capa_1" xmlns="http://www.w3.org/2000/svg" xmlns:xlink="http://www.w3.org/1999/xlink" x="0px" y="0px"
	 width="35px" height="35px" viewBox="132.5 132.5 35 35" enable-background="new 132.5 132.5 35 35" xml:space="preserve">
<g>
	<polygon fill="#9ABADB" points="155.24,166.47 155.24,161.939 148.632,160.43 150,166.47 	"/>
	<g>
		<polygon fill="#D1E8FF" points="144.76,166.47 150,166.47 150,160.43 144.76,161.939 		"/>
		<polygon fill="#D1E8FF" points="167.5,155.146 148.632,153.635 150,161.939 167.5,161.939 		"/>
	</g>
	<polygon fill="#F5F5FF" points="132.5,155.146 132.5,161.939 150,161.939 150,153.635 	"/>
	<polygon fill="#D1E8FF" points="158.32,165.338 150,165.338 149.316,166.47 150,167.602 158.32,167.602 	"/>
	<rect x="141.681" y="165.338" fill="#F5F5FF" width="8.319" height="2.264"/>
	<polygon fill="#294B6E" points="167.5,132.5 150,132.5 148.632,143.823 150,155.146 167.5,155.146 	"/>
	<rect x="132.5" y="132.5" fill="#6283A3" width="17.5" height="22.645"/>
	<polygon fill="#F5F5FF" points="144.725,149.818 139.292,143.823 144.725,137.827 146.175,139.428 142.192,143.823 
		146.175,148.218 	"/>
	<g>
		<polygon fill="#D1E8FF" points="155.276,149.818 153.825,148.218 157.808,143.823 153.825,139.428 155.276,137.827 
			160.708,143.823 		"/>
		<polygon fill="#D1E8FF" points="149.742,151.059 147.73,150.617 150.259,136.586 152.27,137.028 		"/>
	</g>
</g>
</svg>
