<?xml version="1.0" encoding="utf-8"?>
<!-- Generator: Adobe Illustrator 16.0.3, SVG Export Plug-In . SVG Version: 6.00 Build 0)  -->
<!DOCTYPE svg PUBLIC "-//W3C//DTD SVG 1.1//EN" "http://www.w3.org/Graphics/SVG/1.1/DTD/svg11.dtd">
<svg version="1.1" id="Layer_1" xmlns="http://www.w3.org/2000/svg" xmlns:xlink="http://www.w3.org/1999/xlink" x="0px" y="0px"
	 width="165.145px" height="22.094px" viewBox="0 0 165.145 22.094" enable-background="new 0 0 165.145 22.094"
	 xml:space="preserve">
<g>
	<path fill="#231F20" d="M0.255,1.4V0.287h6.235V1.4H3.953v10.266h-1.16V1.4H0.255z"/>
	<path fill="#231F20" d="M7.968,0.287h1.137v11.379H7.968V0.287z"/>
	<path fill="#231F20" d="M16.362,0.287l5.307,11.379h-1.229l-1.79-3.744h-4.903l-1.772,3.744h-1.269l5.377-11.379H16.362z
		 M16.219,2.704l-1.95,4.12h3.891L16.219,2.704z"/>
	<path fill="#231F20" d="M34.411,2.197l-0.882,0.835c-0.634-0.624-1.329-1.097-2.085-1.419c-0.755-0.322-1.492-0.483-2.208-0.483
		c-0.893,0-1.742,0.219-2.549,0.657C25.879,2.226,25.254,2.82,24.81,3.57c-0.443,0.75-0.665,1.543-0.665,2.379
		c0,0.856,0.229,1.67,0.688,2.441s1.093,1.377,1.903,1.818c0.81,0.441,1.697,0.661,2.662,0.661c1.17,0,2.161-0.33,2.971-0.99
		c0.81-0.66,1.289-1.516,1.439-2.568h-3.628V6.212h4.905c-0.01,1.759-0.533,3.155-1.566,4.189c-1.034,1.034-2.418,1.551-4.151,1.551
		c-2.104,0-3.77-0.717-4.998-2.151c-0.944-1.104-1.416-2.38-1.416-3.83c0-1.078,0.271-2.081,0.812-3.009
		c0.542-0.929,1.284-1.654,2.228-2.178S28.005,0,29.197,0c0.964,0,1.872,0.174,2.723,0.522S33.601,1.429,34.411,2.197z"/>
	<path fill="#231F20" d="M42.669,0c1.724,0,3.166,0.575,4.327,1.726c1.161,1.15,1.742,2.566,1.742,4.247
		c0,1.666-0.579,3.079-1.738,4.239c-1.159,1.161-2.571,1.741-4.238,1.741c-1.688,0-3.112-0.578-4.273-1.733
		s-1.742-2.553-1.742-4.193c0-1.093,0.265-2.107,0.793-3.041c0.529-0.934,1.25-1.665,2.164-2.193C40.618,0.265,41.606,0,42.669,0z
		 M42.72,1.106c-0.842,0-1.64,0.219-2.395,0.658s-1.343,1.03-1.767,1.773c-0.424,0.743-0.636,1.572-0.636,2.485
		c0,1.353,0.469,2.495,1.407,3.426c0.938,0.932,2.067,1.398,3.39,1.398c0.883,0,1.701-0.214,2.452-0.643
		c0.752-0.429,1.338-1.015,1.759-1.758c0.421-0.743,0.632-1.569,0.632-2.478c0-0.903-0.21-1.72-0.632-2.451
		c-0.421-0.73-1.014-1.314-1.778-1.753C44.388,1.326,43.577,1.106,42.72,1.106z"/>
	<path fill="#231F20" d="M65.782,2.287L64.267,3.73c-1.031-1.089-2.19-1.634-3.479-1.634c-1.087,0-2.003,0.372-2.748,1.115
		c-0.745,0.743-1.117,1.66-1.117,2.749c0,0.759,0.165,1.433,0.495,2.021c0.33,0.588,0.796,1.05,1.399,1.386
		c0.603,0.336,1.273,0.503,2.01,0.503c0.628,0,1.203-0.117,1.724-0.352c0.52-0.235,1.092-0.662,1.716-1.282l1.469,1.532
		c-0.841,0.821-1.635,1.39-2.383,1.707c-0.748,0.317-1.602,0.477-2.561,0.477c-1.769,0-3.217-0.561-4.344-1.683
		c-1.127-1.122-1.69-2.559-1.69-4.313c0-1.134,0.256-2.143,0.77-3.025c0.513-0.882,1.248-1.591,2.205-2.127
		C58.688,0.269,59.719,0,60.823,0c0.938,0,1.842,0.198,2.711,0.595S65.152,1.555,65.782,2.287z"/>
	<path fill="#231F20" d="M73.05,0c1.61,0,2.995,0.583,4.153,1.749s1.738,2.586,1.738,4.263c0,1.661-0.571,3.066-1.714,4.216
		c-1.144,1.15-2.53,1.726-4.161,1.726c-1.708,0-3.127-0.591-4.258-1.772C67.678,9,67.112,7.597,67.112,5.973
		c0-1.088,0.263-2.089,0.79-3.002c0.526-0.913,1.25-1.636,2.171-2.17C70.995,0.267,71.987,0,73.05,0z M73.027,2.12
		c-1.053,0-1.939,0.366-2.656,1.098c-0.718,0.732-1.077,1.664-1.077,2.793c0,1.258,0.452,2.254,1.355,2.986
		c0.702,0.572,1.507,0.859,2.416,0.859c1.027,0,1.902-0.372,2.625-1.114C76.414,8,76.775,7.084,76.775,5.996
		c0-1.083-0.364-2-1.092-2.75S74.07,2.12,73.027,2.12z"/>
	<path fill="#231F20" d="M86.956,1.833L85.352,3.25c-0.563-0.784-1.137-1.176-1.721-1.176c-0.284,0-0.517,0.076-0.698,0.228
		c-0.181,0.152-0.271,0.324-0.271,0.515c0,0.19,0.064,0.371,0.194,0.542c0.175,0.227,0.705,0.714,1.588,1.462
		c0.827,0.691,1.328,1.127,1.503,1.308c0.439,0.443,0.75,0.868,0.934,1.272s0.275,0.847,0.275,1.327
		c0,0.934-0.322,1.705-0.968,2.313c-0.645,0.608-1.487,0.913-2.524,0.913c-0.811,0-1.517-0.199-2.118-0.596
		c-0.602-0.397-1.117-1.021-1.545-1.873l1.821-1.099c0.547,1.006,1.178,1.509,1.89,1.509c0.372,0,0.685-0.108,0.938-0.325
		c0.253-0.216,0.379-0.467,0.379-0.75c0-0.258-0.096-0.516-0.287-0.773c-0.191-0.258-0.612-0.652-1.263-1.184
		c-1.24-1.011-2.041-1.791-2.402-2.34c-0.362-0.549-0.542-1.097-0.542-1.644c0-0.789,0.301-1.466,0.902-2.031
		C82.039,0.283,82.781,0,83.664,0c0.568,0,1.109,0.132,1.623,0.395C85.8,0.658,86.356,1.137,86.956,1.833z"/>
	<path fill="#231F20" d="M88.1,0.287h6.291v2.135h-2.074v9.244H90.12V2.422H88.1V0.287z"/>
	<path fill="#231F20" d="M99.348,0.287h2.196l4.377,11.379h-2.251l-0.891-2.344h-4.644l-0.926,2.344h-2.251L99.348,0.287z
		 M100.459,3.304L98.932,7.21h3.045L100.459,3.304z"/>
	<path fill="#231F20" d="M112.176,0.287h2.295c1.257,0,2.152,0.112,2.686,0.336c0.533,0.224,0.962,0.597,1.286,1.118
		c0.325,0.521,0.487,1.137,0.487,1.849c0,0.748-0.18,1.373-0.538,1.876s-0.898,0.883-1.62,1.141l2.695,5.059H117.1l-2.56-4.819
		h-0.198v4.819h-2.166V0.287z M114.342,4.735h0.679c0.688,0,1.163-0.091,1.423-0.271c0.26-0.181,0.39-0.481,0.39-0.9
		c0-0.249-0.064-0.464-0.192-0.648c-0.129-0.184-0.301-0.315-0.518-0.396c-0.215-0.081-0.611-0.121-1.188-0.121h-0.594V4.735z"/>
	<path fill="#231F20" d="M121.227,0.287h6.213v2.12h-4.063v2.058h4.063v2.081h-4.063v2.994h4.063v2.127h-6.213V0.287z"/>
	<path fill="#231F20" d="M129.459,11.666V0.287h1.789c1.037,0,1.797,0.067,2.277,0.201c0.682,0.18,1.224,0.516,1.626,1.005
		c0.403,0.49,0.604,1.068,0.604,1.733c0,0.434-0.092,0.827-0.275,1.18c-0.183,0.354-0.48,0.685-0.893,0.994
		c0.691,0.325,1.196,0.731,1.516,1.219c0.32,0.487,0.48,1.063,0.48,1.729c0,0.64-0.166,1.222-0.496,1.749
		c-0.33,0.526-0.756,0.919-1.277,1.179c-0.521,0.261-1.242,0.391-2.161,0.391H129.459z M131.625,2.352V4.75h0.473
		c0.529,0,0.921-0.111,1.178-0.333c0.256-0.222,0.384-0.523,0.384-0.905c0-0.356-0.122-0.639-0.365-0.847
		c-0.243-0.209-0.613-0.313-1.11-0.313H131.625z M131.625,6.685v2.917h0.543c0.899,0,1.506-0.114,1.818-0.34
		c0.313-0.227,0.47-0.557,0.47-0.99c0-0.49-0.184-0.877-0.551-1.161s-0.978-0.425-1.831-0.425H131.625z"/>
	<path fill="#231F20" d="M138.657,0.287h6.213v2.12h-4.063v2.058h4.063v2.081h-4.063v2.994h4.063v2.127h-6.213V0.287z"/>
	<path fill="#231F20" d="M146.889,0.287h2.166v9.314h3.156v2.065h-5.322V0.287z"/>
	<path fill="#231F20" d="M159.231,0c1.611,0,2.995,0.583,4.154,1.749c1.158,1.166,1.737,2.586,1.737,4.263
		c0,1.661-0.571,3.066-1.714,4.216c-1.145,1.15-2.531,1.726-4.162,1.726c-1.707,0-3.127-0.591-4.258-1.772
		c-1.129-1.181-1.695-2.584-1.695-4.208c0-1.088,0.264-2.089,0.79-3.002c0.526-0.913,1.251-1.636,2.171-2.17
		C157.176,0.267,158.168,0,159.231,0z M159.208,2.12c-1.054,0-1.938,0.366-2.656,1.098c-0.718,0.732-1.077,1.664-1.077,2.793
		c0,1.258,0.452,2.254,1.355,2.986c0.703,0.572,1.508,0.859,2.416,0.859c1.027,0,1.902-0.372,2.626-1.114
		c0.723-0.743,1.084-1.658,1.084-2.747c0-1.083-0.364-2-1.092-2.75S160.251,2.12,159.208,2.12z"/>
</g>
<g>
	<path fill="#185381" d="M6.456,16.704l-0.496,0.462c-0.357-0.345-0.748-0.606-1.173-0.784c-0.425-0.178-0.839-0.268-1.243-0.268
		c-0.502,0-0.98,0.121-1.435,0.363c-0.454,0.243-0.806,0.571-1.056,0.986c-0.25,0.414-0.374,0.853-0.374,1.314
		c0,0.473,0.129,0.923,0.387,1.349s0.615,0.761,1.071,1.005c0.456,0.243,0.955,0.365,1.498,0.365c0.659,0,1.216-0.183,1.671-0.547
		c0.456-0.365,0.726-0.838,0.81-1.42H4.075v-0.606h2.76c-0.006,0.972-0.3,1.743-0.881,2.314c-0.582,0.571-1.36,0.857-2.335,0.857
		c-1.184,0-2.121-0.396-2.812-1.188c-0.531-0.61-0.796-1.315-0.796-2.116c0-0.596,0.152-1.15,0.457-1.663s0.723-0.914,1.253-1.204
		c0.531-0.289,1.132-0.434,1.802-0.434c0.542,0,1.053,0.097,1.532,0.289C5.533,15.972,6,16.28,6.456,16.704z"/>
	<path fill="#185381" d="M8.088,15.648h1.275c0.711,0,1.192,0.028,1.445,0.086c0.38,0.085,0.689,0.269,0.927,0.55
		c0.238,0.281,0.357,0.627,0.357,1.038c0,0.343-0.082,0.644-0.246,0.903c-0.164,0.26-0.398,0.456-0.703,0.589
		s-0.726,0.2-1.262,0.203l2.303,2.92h-0.792l-2.303-2.92H8.728v2.92h-0.64V15.648z M8.728,16.265v2.137l1.103,0.009
		c0.427,0,0.744-0.04,0.948-0.119c0.205-0.08,0.365-0.208,0.48-0.383c0.115-0.176,0.172-0.371,0.172-0.588
		c0-0.211-0.058-0.402-0.174-0.575s-0.269-0.296-0.458-0.37s-0.503-0.11-0.942-0.11H8.728z"/>
	<path fill="#185381" d="M16.08,15.648l2.986,6.289h-0.691l-1.007-2.069h-2.758l-0.998,2.069h-0.714l3.025-6.289H16.08z
		 M15.999,16.984l-1.097,2.276h2.189L15.999,16.984z"/>
	<path fill="#185381" d="M20.054,15.648h1.275c0.731,0,1.225,0.031,1.48,0.094c0.365,0.089,0.664,0.271,0.896,0.546
		c0.232,0.274,0.348,0.62,0.348,1.036c0,0.419-0.113,0.765-0.339,1.037c-0.227,0.272-0.539,0.455-0.936,0.549
		c-0.29,0.068-0.833,0.104-1.628,0.104h-0.457v2.924h-0.64V15.648z M20.693,16.265v2.133l1.084,0.013
		c0.438,0,0.759-0.039,0.962-0.117s0.363-0.205,0.479-0.38c0.116-0.175,0.174-0.37,0.174-0.587c0-0.21-0.058-0.402-0.174-0.578
		c-0.116-0.175-0.27-0.299-0.459-0.373s-0.501-0.11-0.934-0.11H20.693z"/>
	<path fill="#185381" d="M25.325,15.648h0.64v2.638h3.26v-2.638h0.64v6.289h-0.64v-3.035h-3.26v3.035h-0.64V15.648z"/>
	<path fill="#185381" d="M31.332,15.648h0.64v6.289h-0.64V15.648z"/>
	<path fill="#185381" d="M39.401,16.815l-0.505,0.381c-0.278-0.356-0.613-0.626-1.003-0.811c-0.391-0.184-0.819-0.275-1.287-0.275
		c-0.511,0-0.983,0.12-1.419,0.361c-0.435,0.241-0.772,0.564-1.012,0.971c-0.24,0.406-0.359,0.862-0.359,1.37
		c0,0.767,0.268,1.406,0.803,1.919c0.535,0.514,1.211,0.77,2.026,0.77c0.896,0,1.646-0.345,2.25-1.034l0.505,0.376
		c-0.319,0.399-0.717,0.708-1.195,0.926c-0.477,0.218-1.01,0.327-1.6,0.327c-1.12,0-2.003-0.366-2.65-1.099
		c-0.543-0.618-0.814-1.365-0.814-2.24c0-0.921,0.329-1.695,0.986-2.324c0.657-0.628,1.48-0.942,2.47-0.942
		c0.598,0,1.137,0.116,1.619,0.349C38.699,16.071,39.094,16.396,39.401,16.815z"/>
	<path fill="#185381" d="M43.154,21.938v-6.289h1.328c0.958,0,1.652,0.075,2.085,0.227c0.621,0.214,1.106,0.584,1.456,1.111
		c0.35,0.527,0.524,1.156,0.524,1.886c0,0.63-0.139,1.185-0.416,1.663c-0.277,0.479-0.637,0.832-1.079,1.061
		c-0.443,0.228-1.063,0.342-1.861,0.342H43.154z M43.768,21.343h0.74c0.885,0,1.499-0.054,1.841-0.162
		c0.481-0.153,0.86-0.431,1.136-0.831c0.275-0.399,0.413-0.889,0.413-1.467c0-0.606-0.149-1.125-0.448-1.555
		c-0.299-0.431-0.715-0.725-1.249-0.885c-0.4-0.119-1.061-0.179-1.98-0.179h-0.453V21.343z"/>
	<path fill="#185381" d="M49.792,15.648h3.669v0.616h-3.029v1.971h3.003v0.615h-3.003v2.472h3.003v0.615h-3.643V15.648z"/>
	<path fill="#185381" d="M53.905,20.766l0.544-0.32c0.383,0.692,0.826,1.039,1.328,1.039c0.215,0,0.417-0.049,0.605-0.147
		s0.332-0.23,0.431-0.396c0.099-0.165,0.148-0.341,0.148-0.526c0-0.21-0.073-0.417-0.218-0.619c-0.2-0.279-0.566-0.616-1.097-1.01
		c-0.534-0.396-0.866-0.682-0.997-0.858c-0.226-0.297-0.339-0.617-0.339-0.962c0-0.274,0.066-0.523,0.2-0.749
		c0.133-0.225,0.321-0.402,0.563-0.532c0.242-0.129,0.506-0.194,0.79-0.194c0.302,0,0.584,0.073,0.847,0.221
		c0.263,0.146,0.541,0.416,0.833,0.81l-0.522,0.39c-0.241-0.313-0.446-0.521-0.616-0.62s-0.354-0.149-0.555-0.149
		c-0.258,0-0.469,0.076-0.633,0.23c-0.164,0.154-0.246,0.344-0.246,0.568c0,0.137,0.029,0.27,0.087,0.397
		c0.058,0.129,0.164,0.269,0.318,0.419c0.084,0.08,0.36,0.29,0.827,0.629c0.554,0.401,0.934,0.76,1.14,1.073
		s0.309,0.628,0.309,0.944c0,0.456-0.176,0.853-0.529,1.188c-0.353,0.337-0.781,0.505-1.286,0.505c-0.389,0-0.742-0.102-1.058-0.306
		C54.464,21.586,54.172,21.245,53.905,20.766z"/>
	<path fill="#185381" d="M58.915,15.648h0.64v6.289h-0.64V15.648z"/>
	<path fill="#185381" d="M67.198,16.704l-0.496,0.462c-0.357-0.345-0.748-0.606-1.173-0.784c-0.425-0.178-0.839-0.268-1.243-0.268
		c-0.502,0-0.98,0.121-1.435,0.363c-0.454,0.243-0.806,0.571-1.056,0.986c-0.25,0.414-0.374,0.853-0.374,1.314
		c0,0.473,0.129,0.923,0.387,1.349s0.615,0.761,1.071,1.005c0.456,0.243,0.955,0.365,1.498,0.365c0.659,0,1.216-0.183,1.671-0.547
		c0.456-0.365,0.726-0.838,0.81-1.42h-2.042v-0.606h2.76c-0.006,0.972-0.3,1.743-0.881,2.314c-0.582,0.571-1.36,0.857-2.335,0.857
		c-1.184,0-2.121-0.396-2.812-1.188c-0.531-0.61-0.796-1.315-0.796-2.116c0-0.596,0.152-1.15,0.457-1.663s0.723-0.914,1.253-1.204
		c0.531-0.289,1.132-0.434,1.802-0.434c0.542,0,1.053,0.097,1.532,0.289C66.275,15.972,66.743,16.28,67.198,16.704z"/>
	<path fill="#185381" d="M68.8,21.938v-6.289h0.139l4.261,4.821v-4.821h0.631v6.289h-0.144l-4.227-4.762v4.762H68.8z"/>
	<path fill="#185381" d="M75.395,15.648h3.669v0.616h-3.029v1.971h3.003v0.615h-3.003v2.472h3.003v0.615h-3.643V15.648z"/>
	<path fill="#185381" d="M80.205,15.648h1.275c0.711,0,1.192,0.028,1.445,0.086c0.38,0.085,0.689,0.269,0.927,0.55
		c0.238,0.281,0.357,0.627,0.357,1.038c0,0.343-0.082,0.644-0.246,0.903c-0.164,0.26-0.398,0.456-0.703,0.589
		s-0.726,0.2-1.262,0.203l2.303,2.92h-0.792l-2.303-2.92h-0.362v2.92h-0.64V15.648z M80.844,16.265v2.137l1.103,0.009
		c0.427,0,0.744-0.04,0.948-0.119c0.205-0.08,0.365-0.208,0.48-0.383c0.115-0.176,0.172-0.371,0.172-0.588
		c0-0.211-0.058-0.402-0.174-0.575s-0.269-0.296-0.458-0.37s-0.503-0.11-0.942-0.11H80.844z"/>
	<path fill="#185381" d="M92.893,19.611l0.434,0.451c-0.278,0.243-0.543,0.452-0.793,0.628c0.174,0.157,0.401,0.374,0.682,0.648
		c0.221,0.216,0.411,0.416,0.569,0.599h-0.893l-0.849-0.859c-0.533,0.422-0.967,0.697-1.301,0.825s-0.687,0.192-1.058,0.192
		c-0.493,0-0.89-0.139-1.188-0.417s-0.448-0.625-0.448-1.041c0-0.314,0.101-0.628,0.302-0.943c0.202-0.315,0.613-0.714,1.233-1.195
		c-0.351-0.416-0.576-0.723-0.676-0.921s-0.15-0.387-0.15-0.566c0-0.313,0.124-0.572,0.37-0.777
		c0.284-0.239,0.639-0.359,1.063-0.359c0.267,0,0.511,0.053,0.731,0.158c0.22,0.105,0.389,0.247,0.505,0.426
		c0.115,0.178,0.174,0.367,0.174,0.566c0,0.211-0.075,0.436-0.227,0.673c-0.151,0.238-0.449,0.543-0.894,0.913l0.971,1l0.636,0.634
		C92.428,19.999,92.697,19.787,92.893,19.611z M90.005,18.974c-0.544,0.402-0.9,0.722-1.068,0.96
		c-0.169,0.238-0.253,0.459-0.253,0.661c0,0.239,0.103,0.451,0.31,0.635c0.206,0.185,0.459,0.276,0.759,0.276
		c0.227,0,0.449-0.046,0.667-0.137c0.343-0.146,0.736-0.393,1.18-0.741l-1.01-1.021C90.415,19.427,90.22,19.216,90.005,18.974z
		 M90.083,18.141c0.312-0.236,0.545-0.469,0.702-0.696c0.11-0.163,0.166-0.307,0.166-0.432c0-0.146-0.072-0.271-0.216-0.377
		c-0.145-0.105-0.336-0.158-0.574-0.158c-0.228,0-0.412,0.055-0.555,0.163s-0.214,0.236-0.214,0.385c0,0.114,0.029,0.221,0.088,0.32
		C89.624,17.588,89.825,17.854,90.083,18.141z"/>
	<path fill="#185381" d="M97.263,15.648h3.208v0.616h-2.568v1.971h2.568v0.615h-2.568v3.087h-0.64V15.648z"/>
	<path fill="#185381" d="M101.621,15.648h1.274c0.711,0,1.193,0.028,1.445,0.086c0.381,0.085,0.689,0.269,0.928,0.55
		c0.237,0.281,0.356,0.627,0.356,1.038c0,0.343-0.082,0.644-0.246,0.903s-0.398,0.456-0.703,0.589s-0.725,0.2-1.262,0.203
		l2.303,2.92h-0.792l-2.303-2.92h-0.361v2.92h-0.64V15.648z M102.26,16.265v2.137l1.103,0.009c0.428,0,0.743-0.04,0.948-0.119
		c0.205-0.08,0.365-0.208,0.479-0.383c0.115-0.176,0.173-0.371,0.173-0.588c0-0.211-0.059-0.402-0.175-0.575
		s-0.269-0.296-0.458-0.37c-0.188-0.074-0.503-0.11-0.941-0.11H102.26z"/>
	<path fill="#185381" d="M110.044,15.49c0.97,0,1.781,0.318,2.435,0.953c0.653,0.636,0.98,1.418,0.98,2.348
		c0,0.921-0.326,1.701-0.979,2.343c-0.651,0.642-1.446,0.962-2.384,0.962c-0.95,0-1.751-0.319-2.404-0.958
		c-0.653-0.638-0.98-1.41-0.98-2.316c0-0.604,0.149-1.165,0.446-1.681c0.298-0.516,0.704-0.92,1.218-1.212
		S109.447,15.49,110.044,15.49z M110.073,16.102c-0.474,0-0.923,0.121-1.347,0.364c-0.425,0.242-0.756,0.568-0.994,0.979
		s-0.357,0.868-0.357,1.373c0,0.748,0.264,1.379,0.791,1.894s1.163,0.772,1.907,0.772c0.497,0,0.957-0.118,1.38-0.355
		c0.423-0.236,0.753-0.561,0.989-0.971c0.237-0.411,0.355-0.867,0.355-1.369c0-0.499-0.118-0.951-0.355-1.354
		c-0.236-0.403-0.57-0.727-1-0.969C111.011,16.223,110.555,16.102,110.073,16.102z"/>
	<path fill="#185381" d="M114.748,21.938v-6.289h0.14l4.262,4.821v-4.821h0.631v6.289h-0.144l-4.227-4.762v4.762H114.748z"/>
	<path fill="#185381" d="M120.703,16.265v-0.616h3.509v0.616h-1.428v5.673h-0.653v-5.673H120.703z"/>
	<path fill="#185381" d="M127.606,15.648h3.67v0.616h-3.029v1.971h3.003v0.615h-3.003v2.472h3.003v0.615h-3.644V15.648z"/>
	<path fill="#185381" d="M132.385,21.938v-6.289h0.14l4.262,4.821v-4.821h0.631v6.289h-0.144l-4.227-4.762v4.762H132.385z"/>
	<path fill="#185381" d="M138.975,21.938v-6.289h1.327c0.958,0,1.653,0.075,2.085,0.227c0.621,0.214,1.106,0.584,1.456,1.111
		s0.524,1.156,0.524,1.886c0,0.63-0.139,1.185-0.415,1.663c-0.277,0.479-0.638,0.832-1.08,1.061
		c-0.442,0.228-1.063,0.342-1.86,0.342H138.975z M139.588,21.343h0.74c0.885,0,1.499-0.054,1.841-0.162
		c0.482-0.153,0.86-0.431,1.137-0.831c0.275-0.399,0.413-0.889,0.413-1.467c0-0.606-0.149-1.125-0.448-1.555
		c-0.299-0.431-0.715-0.725-1.249-0.885c-0.4-0.119-1.061-0.179-1.98-0.179h-0.453V21.343z"/>
	<path fill="#185381" d="M148.077,21.938v-6.289h1.327c0.958,0,1.653,0.075,2.085,0.227c0.621,0.214,1.106,0.584,1.456,1.111
		s0.524,1.156,0.524,1.886c0,0.63-0.139,1.185-0.415,1.663c-0.277,0.479-0.638,0.832-1.08,1.061
		c-0.442,0.228-1.063,0.342-1.86,0.342H148.077z M148.69,21.343h0.74c0.885,0,1.499-0.054,1.841-0.162
		c0.482-0.153,0.86-0.431,1.137-0.831c0.275-0.399,0.413-0.889,0.413-1.467c0-0.606-0.149-1.125-0.448-1.555
		c-0.299-0.431-0.715-0.725-1.249-0.885c-0.4-0.119-1.061-0.179-1.98-0.179h-0.453V21.343z"/>
	<path fill="#185381" d="M154.714,15.648h3.67v0.616h-3.029v1.971h3.003v0.615h-3.003v2.472h3.003v0.615h-3.644V15.648z"/>
	<path fill="#185381" d="M159.002,15.648h0.696l2.122,4.858l2.156-4.858h0.696l-2.785,6.289h-0.14L159.002,15.648z"/>
</g>
</svg>
